<svg width="140" height="177" viewBox="0 0 140 177" fill="none" xmlns="http://www.w3.org/2000/svg">
<rect y="9" width="20" height="160" rx="10" fill="#AAAAAA"/>
<path d="M120 19C120 13.4772 124.477 9 130 9C135.523 9 140 13.4772 140 19V159C140 164.523 135.523 169 130 169C124.477 169 120 164.523 120 159V19Z" fill="#AAAAAA"/>
<path d="M57.2812 25.1875L56.9375 27.4375H41.1875L41.5625 25.1875H57.2812ZM49.1562 16.25H51.6562L45.6875 50.875C45.5208 51.875 45.4583 52.8646 45.5 53.8438C45.5625 54.8229 45.8542 55.6354 46.375 56.2812C46.9167 56.9271 47.8125 57.2604 49.0625 57.2812C49.625 57.2812 50.1771 57.25 50.7188 57.1875C51.2604 57.125 51.8021 57.0625 52.3438 57L52.3125 59.2188C51.7292 59.3646 51.1354 59.4688 50.5312 59.5312C49.9479 59.5938 49.3542 59.625 48.75 59.625C47 59.6042 45.6875 59.1771 44.8125 58.3438C43.9583 57.5104 43.4167 56.4271 43.1875 55.0938C42.9792 53.7604 43 52.3438 43.25 50.8438L49.1562 16.25ZM68.2812 25.1875L62.4688 59H60L65.8438 25.1875H68.2812ZM66.875 14.9062C66.9167 14.3854 67.1458 13.9167 67.5625 13.5C68 13.0833 68.4896 12.875 69.0312 12.875C69.6146 12.875 70.0833 13.0833 70.4375 13.5C70.8125 13.9167 70.9688 14.4062 70.9062 14.9688C70.8438 15.4896 70.5938 15.9479 70.1562 16.3438C69.7188 16.7396 69.2292 16.9479 68.6875 16.9688C68.125 16.9688 67.6562 16.7708 67.2812 16.375C66.9271 15.9583 66.7917 15.4688 66.875 14.9062ZM84.8125 57.3438C86.6667 57.3438 88.3646 56.9896 89.9062 56.2812C91.4479 55.5729 92.7604 54.5729 93.8438 53.2812C94.9479 51.9688 95.7396 50.4375 96.2188 48.6875H98.625C98.1667 50.875 97.2604 52.7917 95.9062 54.4375C94.5729 56.0833 92.9479 57.3646 91.0312 58.2812C89.1146 59.1771 87.0417 59.625 84.8125 59.625C82.4375 59.625 80.4583 59.1354 78.875 58.1562C77.3125 57.1562 76.0938 55.8438 75.2188 54.2188C74.3646 52.5729 73.8125 50.7604 73.5625 48.7812C73.3125 46.7812 73.3229 44.7812 73.5938 42.7812L73.75 41.4375C74.0833 39.3333 74.6562 37.2812 75.4688 35.2812C76.3021 33.2604 77.3854 31.4479 78.7188 29.8438C80.0521 28.2188 81.6458 26.9271 83.5 25.9688C85.3542 25.0104 87.4583 24.5417 89.8125 24.5625C92.125 24.5625 94.1146 25.0833 95.7812 26.125C97.4479 27.1667 98.6979 28.5833 99.5312 30.375C100.365 32.1458 100.719 34.1667 100.594 36.4375H98.1875C98.3333 34.625 98.0833 33 97.4375 31.5625C96.8125 30.125 95.8438 28.9792 94.5312 28.125C93.2396 27.2708 91.6562 26.8438 89.7812 26.8438C87.7396 26.8229 85.9375 27.2396 84.375 28.0938C82.8125 28.9271 81.4792 30.0521 80.375 31.4688C79.2708 32.8646 78.375 34.4375 77.6875 36.1875C77 37.9167 76.5208 39.6667 76.25 41.4375L76.0312 42.75C75.7812 44.4167 75.7188 46.1042 75.8438 47.8125C75.9896 49.5208 76.375 51.0938 77 52.5312C77.625 53.9688 78.5729 55.125 79.8438 56C81.1354 56.875 82.7917 57.3229 84.8125 57.3438Z" fill="white"/>
<path d="M48.7812 76.1875L47.75 82.125H28.9062L29.9375 76.1875H48.7812ZM36.4062 67.875H44.4688L38.9375 100.312C38.8542 101.042 38.8542 101.667 38.9375 102.188C39.0417 102.708 39.2812 103.115 39.6562 103.406C40.0521 103.698 40.6458 103.854 41.4375 103.875C41.875 103.896 42.3125 103.875 42.75 103.812C43.2083 103.75 43.6562 103.698 44.0938 103.656L43.5312 109.906C42.7396 110.135 41.9375 110.302 41.125 110.406C40.3125 110.531 39.4896 110.594 38.6562 110.594C36.7188 110.552 35.1354 110.115 33.9062 109.281C32.6979 108.448 31.8438 107.312 31.3438 105.875C30.8438 104.417 30.6771 102.76 30.8438 100.906L36.4062 67.875ZM67.625 102.812L70.0938 87.0938C70.2188 86.0938 70.1562 85.1875 69.9062 84.375C69.6771 83.5417 69.2396 82.875 68.5938 82.375C67.9479 81.875 67.0729 81.6146 65.9688 81.5938C64.9896 81.5729 64.0833 81.7396 63.25 82.0938C62.4375 82.4479 61.75 82.9583 61.1875 83.625C60.625 84.2917 60.2396 85.1042 60.0312 86.0625L51.9688 86.125C52.0938 84.2917 52.625 82.7083 53.5625 81.375C54.5 80.0208 55.6875 78.9167 57.125 78.0625C58.5625 77.1875 60.125 76.5417 61.8125 76.125C63.5 75.7083 65.1562 75.5208 66.7812 75.5625C69.0938 75.6042 71.1562 76.0938 72.9688 77.0312C74.7812 77.9688 76.1667 79.3021 77.125 81.0312C78.0833 82.7396 78.4375 84.8229 78.1875 87.2812L75.7812 102.031C75.5938 103.24 75.4583 104.49 75.375 105.781C75.2917 107.052 75.4583 108.271 75.875 109.438L75.8438 110L67.875 110.031C67.5208 108.865 67.3438 107.667 67.3438 106.438C67.3646 105.208 67.4583 104 67.625 102.812ZM71.0312 89.4062L70.2188 94.3125L65.5625 94.2812C64.6042 94.2812 63.6354 94.3854 62.6562 94.5938C61.6979 94.8021 60.8021 95.1354 59.9688 95.5938C59.1354 96.0312 58.4375 96.625 57.875 97.375C57.3125 98.125 56.9688 99.0417 56.8438 100.125C56.7396 100.958 56.8333 101.688 57.125 102.312C57.4167 102.938 57.8542 103.438 58.4375 103.812C59.0417 104.167 59.7604 104.354 60.5938 104.375C61.7396 104.396 62.8646 104.177 63.9688 103.719C65.0729 103.24 66.0312 102.573 66.8438 101.719C67.6771 100.865 68.25 99.875 68.5625 98.75L70.4688 102.375C70.0104 103.604 69.3854 104.729 68.5938 105.75C67.8021 106.771 66.8854 107.656 65.8438 108.406C64.8021 109.135 63.6667 109.698 62.4375 110.094C61.2292 110.51 59.9583 110.708 58.625 110.688C56.75 110.646 55.0312 110.208 53.4688 109.375C51.9271 108.542 50.7083 107.385 49.8125 105.906C48.9167 104.427 48.5104 102.719 48.5938 100.781C48.6979 98.5729 49.25 96.7396 50.25 95.2812C51.2708 93.8021 52.5833 92.6354 54.1875 91.7812C55.7917 90.9271 57.5417 90.3125 59.4375 89.9375C61.3542 89.5625 63.2396 89.375 65.0938 89.375L71.0312 89.4062ZM96.2188 104.156C97.3854 104.177 98.4375 103.958 99.375 103.5C100.312 103.021 101.094 102.365 101.719 101.531C102.344 100.698 102.771 99.7188 103 98.5938L110.625 98.5625C110.396 101.042 109.562 103.198 108.125 105.031C106.708 106.844 104.927 108.25 102.781 109.25C100.635 110.229 98.3646 110.688 95.9688 110.625C93.5521 110.583 91.4792 110.094 89.75 109.156C88.0417 108.219 86.6562 106.969 85.5938 105.406C84.5521 103.823 83.8229 102.021 83.4062 100C82.9896 97.9792 82.8854 95.875 83.0938 93.6875L83.2188 92.6562C83.4688 90.3229 84.0208 88.1146 84.875 86.0312C85.75 83.9479 86.9167 82.1146 88.375 80.5312C89.8333 78.9271 91.5521 77.6875 93.5312 76.8125C95.5312 75.9167 97.7812 75.5 100.281 75.5625C102.823 75.6042 105.01 76.1875 106.844 77.3125C108.677 78.4375 110.073 79.9688 111.031 81.9062C112.01 83.8229 112.49 86.0312 112.469 88.5312L104.875 88.5C104.896 87.3958 104.729 86.3646 104.375 85.4062C104.042 84.4271 103.49 83.6354 102.719 83.0312C101.969 82.4271 100.969 82.0938 99.7188 82.0312C98.2604 81.9896 97.0208 82.2917 96 82.9375C94.9792 83.5625 94.1354 84.4167 93.4688 85.5C92.8229 86.5625 92.3229 87.7188 91.9688 88.9688C91.6146 90.2188 91.3646 91.4479 91.2188 92.6562L91.1562 93.6562C91.0521 94.6979 91 95.8125 91 97C91 98.1875 91.1458 99.3229 91.4375 100.406C91.75 101.469 92.2812 102.354 93.0312 103.062C93.7812 103.75 94.8438 104.115 96.2188 104.156Z" fill="white"/>
<path d="M46.2812 127.188L45.9375 129.438H30.1875L30.5625 127.188H46.2812ZM38.1562 118.25H40.6562L34.6875 152.875C34.5208 153.875 34.4583 154.865 34.5 155.844C34.5625 156.823 34.8542 157.635 35.375 158.281C35.9167 158.927 36.8125 159.26 38.0625 159.281C38.625 159.281 39.1771 159.25 39.7188 159.188C40.2604 159.125 40.8021 159.062 41.3438 159L41.3125 161.219C40.7292 161.365 40.1354 161.469 39.5312 161.531C38.9479 161.594 38.3542 161.625 37.75 161.625C36 161.604 34.6875 161.177 33.8125 160.344C32.9583 159.51 32.4167 158.427 32.1875 157.094C31.9792 155.76 32 154.344 32.25 152.844L38.1562 118.25ZM48.5312 144.719L48.6875 143.531C49.0208 141.365 49.6458 139.271 50.5625 137.25C51.4792 135.208 52.6562 133.385 54.0938 131.781C55.5312 130.156 57.2188 128.875 59.1562 127.938C61.0938 127 63.25 126.542 65.625 126.562C67.9792 126.562 69.9792 127.052 71.625 128.031C73.2917 129.01 74.6146 130.312 75.5938 131.938C76.5729 133.542 77.2292 135.354 77.5625 137.375C77.9167 139.375 77.9583 141.417 77.6875 143.5L77.5312 144.688C77.1979 146.854 76.5729 148.948 75.6562 150.969C74.7396 152.99 73.5625 154.812 72.125 156.438C70.6875 158.042 69 159.312 67.0625 160.25C65.1458 161.188 63 161.646 60.625 161.625C58.2708 161.625 56.2604 161.146 54.5938 160.188C52.9479 159.208 51.6354 157.906 50.6562 156.281C49.6771 154.656 49.0104 152.844 48.6562 150.844C48.3021 148.844 48.2604 146.802 48.5312 144.719ZM51.1875 143.531L51 144.75C50.75 146.438 50.7396 148.146 50.9688 149.875C51.1979 151.583 51.6875 153.156 52.4375 154.594C53.2083 156.01 54.2708 157.156 55.625 158.031C56.9792 158.906 58.6458 159.344 60.625 159.344C62.6458 159.365 64.4688 158.958 66.0938 158.125C67.7396 157.271 69.1771 156.146 70.4062 154.75C71.6354 153.333 72.6354 151.75 73.4062 150C74.1771 148.25 74.7188 146.479 75.0312 144.688L75.2188 143.5C75.4688 141.812 75.4688 140.115 75.2188 138.406C74.9896 136.677 74.5 135.094 73.75 133.656C73 132.219 71.9479 131.062 70.5938 130.188C69.2396 129.292 67.5729 128.844 65.5938 128.844C63.5938 128.823 61.7708 129.24 60.125 130.094C58.5 130.927 57.0729 132.052 55.8438 133.469C54.6146 134.885 53.6042 136.469 52.8125 138.219C52.0208 139.969 51.4792 141.74 51.1875 143.531ZM94.9688 161.625C92.6979 161.625 90.7396 161.146 89.0938 160.188C87.4479 159.208 86.1146 157.917 85.0938 156.312C84.0938 154.688 83.4062 152.896 83.0312 150.938C82.6771 148.958 82.625 146.958 82.875 144.938L83.0938 143.562C83.3854 141.5 83.9688 139.469 84.8438 137.469C85.7396 135.448 86.8854 133.615 88.2812 131.969C89.6979 130.323 91.3333 129.01 93.1875 128.031C95.0625 127.031 97.1458 126.542 99.4375 126.562C101.521 126.562 103.281 126.99 104.719 127.844C106.156 128.698 107.302 129.833 108.156 131.25C109.031 132.667 109.615 134.26 109.906 136.031C110.198 137.781 110.229 139.573 110 141.406L109.719 143.5H84.5938L84.9375 141.219H107.469L107.562 140.812C107.896 138.917 107.812 137.052 107.312 135.219C106.833 133.385 105.927 131.875 104.594 130.688C103.281 129.479 101.542 128.865 99.375 128.844C97.4167 128.823 95.6458 129.25 94.0625 130.125C92.4792 130.979 91.1042 132.135 89.9375 133.594C88.7708 135.031 87.8125 136.625 87.0625 138.375C86.3333 140.104 85.8229 141.833 85.5312 143.562L85.3438 144.906C85.0938 146.573 85.0938 148.26 85.3438 149.969C85.6146 151.656 86.1354 153.208 86.9062 154.625C87.6979 156.042 88.7708 157.188 90.125 158.062C91.4792 158.917 93.125 159.354 95.0625 159.375C97.125 159.396 98.9896 158.99 100.656 158.156C102.344 157.323 103.906 156.198 105.344 154.781L106.875 156C105.875 157.208 104.75 158.24 103.5 159.094C102.271 159.927 100.938 160.562 99.5 161C98.0625 161.417 96.5521 161.625 94.9688 161.625Z" fill="white"/>
</svg>
